<?xml version="1.0" encoding="iso-8859-1"?>
<!-- Generator: Adobe Illustrator 19.0.0, SVG Export Plug-In . SVG Version: 6.00 Build 0)  -->
<svg version="1.1" id="Capa_1" xmlns="http://www.w3.org/2000/svg" xmlns:xlink="http://www.w3.org/1999/xlink" x="0px" y="0px"
	 viewBox="0 0 464 464" style="enable-background:new 0 0 464 464;" xml:space="preserve">
<path style="fill:#88D0EF;" d="M304,56h160v96H264L304,56z"/>
<path style="fill:#A9BFD1;" d="M392,56h16v112h-16V56z"/>
<g>
	<path style="fill:#5A6570;" d="M336,128c-4.418,0-8-3.582-8-8V88c0-4.418,3.582-8,8-8s8,3.582,8,8v32
		C344,124.418,340.418,128,336,128z"/>
	<path style="fill:#5A6570;" d="M312,160c-4.418,0-8-3.582-8-8v-29.24c0.013-14.774,11.986-26.747,26.76-26.76H336
		c4.418,0,8,3.582,8,8s-3.582,8-8,8h-5.24c-5.939,0.009-10.751,4.821-10.76,10.76V152C320,156.418,316.418,160,312,160z"/>
</g>
<path style="fill:#88D0EF;" d="M136,165.256c-0.965,0.965-1.965,1.88-3,2.744c-17.982,15.003-44.438,13.813-61-2.744
	c-17.673-17.672-46.327-17.672-64,0l-8,8V408h464V168L136,165.256z"/>
<path style="fill:#CC5632;" d="M136,216v-56l128-8h200v120H136V216z"/>
<path style="fill:#D1E3EE;" d="M122.664,216H160v48h-37.336C112.36,264,104,253.256,104,240S112.36,216,122.664,216z"/>
<circle style="fill:#5A6570;" cx="240" cy="248" r="56"/>
<path style="fill:#7C0A0A;" d="M384,192h-16c-4.418,0-8-3.582-8-8s3.582-8,8-8h16c4.418,0,8,3.582,8,8S388.418,192,384,192z"/>
<path style="fill:#2BB3CE;" d="M0,255.2l8-8c17.673-17.672,46.327-17.672,64,0c17.662,17.673,46.306,17.682,63.979,0.021
	c0.007-0.007,0.014-0.014,0.021-0.021c17.673-17.672,46.327-17.672,64,0c17.662,17.673,46.306,17.682,63.979,0.021
	c0.007-0.007,0.014-0.014,0.021-0.021c17.673-17.672,46.327-17.672,64,0c17.662,17.673,46.306,17.682,63.979,0.021
	c0.007-0.007,0.014-0.014,0.021-0.021c17.673-17.672,46.327-17.672,64,0l8,8V408H0V255.2z"/>
<path style="fill:#2273AF;" d="M0,338.744l8-8c17.673-17.672,46.327-17.672,64,0s46.327,17.672,64,0s46.327-17.672,64,0
	s46.327,17.672,64,0s46.327-17.672,64,0s46.327,17.672,64,0s46.327-17.672,64,0l8,8V408H0V338.744z"/>
<g>
</g>
<g>
</g>
<g>
</g>
<g>
</g>
<g>
</g>
<g>
</g>
<g>
</g>
<g>
</g>
<g>
</g>
<g>
</g>
<g>
</g>
<g>
</g>
<g>
</g>
<g>
</g>
<g>
</g>
</svg>
