<?xml version="1.0" encoding="iso-8859-1"?>
<!-- Generator: Adobe Illustrator 19.0.0, SVG Export Plug-In . SVG Version: 6.00 Build 0)  -->
<svg version="1.1" id="Capa_1" xmlns="http://www.w3.org/2000/svg" xmlns:xlink="http://www.w3.org/1999/xlink" x="0px" y="0px"
	 viewBox="0 0 512 512" style="enable-background:new 0 0 512 512;" xml:space="preserve">
<path style="fill:#4CBEFF;" d="M460.8,243.806c-14.24,10.768-31.971,17.162-51.2,17.162s-36.96-6.394-51.2-17.162
	c-14.24,10.768-31.971,17.162-51.2,17.162s-36.96-6.394-51.2-17.162c-14.24,10.768-31.971,17.162-51.2,17.162
	s-36.96-6.394-51.2-17.162c-14.24,10.768-31.971,17.162-51.2,17.162s-36.96-6.394-51.2-17.162
	C36.96,254.573,19.229,260.967,0,260.967V407h512V260.967C492.771,260.967,475.04,254.573,460.8,243.806z"/>
<polygon style="fill:#135772;" points="226,193.988 226,437 367.4,437 367.4,249.743 357.4,219.743 "/>
<g>
	<path style="fill:#186C95;" d="M256,0l-47.436,253.988L256,243.806c14.24,10.768,31.971,17.162,51.2,17.162
		s36.96-6.394,51.2-17.162c2.862,2.164,5.872,4.142,9,5.937V0H256z"/>
	<polygon style="fill:#186C95;" points="144.6,249.743 144.6,437 256,437 256,243.806 174.6,209.743 	"/>
</g>
<path style="fill:#1C81B9;" d="M144.6,0v249.743c3.128-1.795,6.138-3.773,9-5.937c14.24,10.768,31.971,17.162,51.2,17.162
	s36.96-6.394,51.2-17.162V0H144.6z"/>
<g>
	<rect x="296.7" y="45" style="fill:#97E4FD;" width="30" height="60"/>
	<rect x="296.7" y="135" style="fill:#97E4FD;" width="30" height="60"/>
</g>
<g>
	<rect x="185.3" y="45" style="fill:#FFFFFF;" width="30" height="60"/>
	<rect x="185.3" y="135" style="fill:#FFFFFF;" width="30" height="60"/>
</g>
<polygon style="fill:#439040;" points="256,312 236,437 303.133,437 303.133,312 "/>
<rect x="208.87" y="312" style="fill:#5DA938;" width="47.13" height="125"/>
<polygon style="fill:#0E424F;" points="256,407 226,459.5 256,512 512,512 512,407 "/>
<rect y="407" style="fill:#205C4A;" width="256" height="105"/>
<g>
</g>
<g>
</g>
<g>
</g>
<g>
</g>
<g>
</g>
<g>
</g>
<g>
</g>
<g>
</g>
<g>
</g>
<g>
</g>
<g>
</g>
<g>
</g>
<g>
</g>
<g>
</g>
<g>
</g>
</svg>
