<?xml version="1.0" encoding="iso-8859-1"?>
<!-- Generator: Adobe Illustrator 19.0.0, SVG Export Plug-In . SVG Version: 6.00 Build 0)  -->
<svg version="1.1" id="Capa_1" xmlns="http://www.w3.org/2000/svg" xmlns:xlink="http://www.w3.org/1999/xlink" x="0px" y="0px"
	 viewBox="0 0 512 512" style="enable-background:new 0 0 512 512;" xml:space="preserve">
<g>
	<path style="fill:#BCF7FC;" d="M142.314,392H90.353l-25.98-45l25.98-45h51.961l25.98,45L142.314,392z"/>
	<path style="fill:#BCF7FC;" d="M142.314,512H90.353l-25.98-45l25.98-45h51.961l25.98,45L142.314,512z"/>
</g>
<g>
	<path style="fill:#97E4FD;" d="M423.647,392h-51.961l-25.98-45l25.98-45h51.961l25.98,45L423.647,392z"/>
	<path style="fill:#97E4FD;" d="M423.647,512h-51.961l-25.98-45l25.98-45h51.961l25.98,45L423.647,512z"/>
	<rect x="171.67" y="392" style="fill:#97E4FD;" width="30" height="30"/>
</g>
<g>
	<rect x="312.33" y="392" style="fill:#71D1FE;" width="30" height="30"/>
	<rect x="453" y="392" style="fill:#71D1FE;" width="30" height="30"/>
</g>
<rect x="31" y="392" style="fill:#97E4FD;" width="30" height="30"/>
<path style="fill:#093F61;" d="M490.834,144.792c-10.403-10.719-23.512-17.962-37.824-21.064C447.126,87.635,415.729,60,378,60
	c-2.654,0-5.303,0.138-7.935,0.413C344.945,22.898,302.551,0,257,0l-50,136l50,136h180c41.355,0,75-33.645,75-75
	C512,177.397,504.483,158.856,490.834,144.792z"/>
<path style="fill:#186C95;" d="M143.935,60.413C141.303,60.138,138.654,60,136,60c-37.579,0-68.875,27.418-74.938,63.298
	C26.342,129.849,0,160.405,0,197c0,41.355,33.645,75,75,75h182V0C211.449,0,169.055,22.898,143.935,60.413z"/>
<g>
	<polygon style="fill:#97E4FD;" points="282.98,302 308.96,347 282.98,392 257,392 235.04,347 257,302 	"/>
	<polygon style="fill:#97E4FD;" points="282.98,422 308.96,467 282.98,512 257,512 235.04,467 257,422 	"/>
</g>
<g>
	<polygon style="fill:#BCF7FC;" points="257,422 257,512 231.02,512 205.04,467 231.02,422 	"/>
	<polygon style="fill:#BCF7FC;" points="257,302 257,392 231.02,392 205.04,347 231.02,302 	"/>
</g>
<g>
</g>
<g>
</g>
<g>
</g>
<g>
</g>
<g>
</g>
<g>
</g>
<g>
</g>
<g>
</g>
<g>
</g>
<g>
</g>
<g>
</g>
<g>
</g>
<g>
</g>
<g>
</g>
<g>
</g>
</svg>
