<?xml version="1.0" encoding="iso-8859-1"?>
<!-- Generator: Adobe Illustrator 19.0.0, SVG Export Plug-In . SVG Version: 6.00 Build 0)  -->
<svg version="1.1" id="Capa_1" xmlns="http://www.w3.org/2000/svg" xmlns:xlink="http://www.w3.org/1999/xlink" x="0px" y="0px"
	 viewBox="0 0 512 512" style="enable-background:new 0 0 512 512;" xml:space="preserve">
<rect x="182" y="482" style="fill:#4CBEFF;" width="30" height="30"/>
<rect x="182" y="422" style="fill:#71D1FE;" width="30" height="30"/>
<rect x="182" y="362" style="fill:#4CBEFF;" width="30" height="30"/>
<g>
	<rect x="302" y="482" style="fill:#26ABFF;" width="30" height="30"/>
	<rect x="302" y="422" style="fill:#26ABFF;" width="30" height="30"/>
	<rect x="302" y="362" style="fill:#26ABFF;" width="30" height="30"/>
</g>
<g>
	<rect x="122" y="362" style="fill:#4CBEFF;" width="30" height="60"/>
	<rect x="122" y="452" style="fill:#4CBEFF;" width="30" height="60"/>
	<rect x="62" y="302" style="fill:#4CBEFF;" width="30" height="60"/>
	<rect x="62" y="452" style="fill:#4CBEFF;" width="30" height="60"/>
	<rect x="242" y="362" style="fill:#4CBEFF;" width="30" height="60"/>
</g>
<g>
	<rect x="242" y="452" style="fill:#26ABFF;" width="30" height="60"/>
	<rect x="362" y="362" style="fill:#26ABFF;" width="30" height="60"/>
	<rect x="362" y="452" style="fill:#26ABFF;" width="30" height="60"/>
	<rect x="422" y="302" style="fill:#26ABFF;" width="30" height="60"/>
</g>
<rect x="182" y="302" style="fill:#71D1FE;" width="30" height="30"/>
<rect x="302" y="302" style="fill:#26ABFF;" width="30" height="30"/>
<rect x="122" y="302" style="fill:#4CBEFF;" width="30" height="30"/>
<rect x="62" y="392" style="fill:#71D1FE;" width="30" height="30"/>
<g>
	<rect x="242" y="302" style="fill:#26ABFF;" width="30" height="30"/>
	<rect x="362" y="302" style="fill:#26ABFF;" width="30" height="30"/>
	<rect x="422" y="392" style="fill:#26ABFF;" width="30" height="30"/>
	<rect x="422" y="452" style="fill:#26ABFF;" width="30" height="60"/>
</g>
<path style="fill:#093F61;" d="M490.834,144.792c-10.403-10.719-23.512-17.962-37.824-21.064C447.126,87.635,415.729,60,378,60
	c-2.654,0-5.303,0.138-7.935,0.413C344.945,22.898,302.551,0,257,0l-50,136l50,136h180c41.355,0,75-33.645,75-75
	C512,177.397,504.483,158.856,490.834,144.792z"/>
<path style="fill:#186C95;" d="M143.935,60.413C141.303,60.138,138.654,60,136,60c-37.579,0-68.875,27.418-74.938,63.298
	C26.342,129.849,0,160.405,0,197c0,41.355,33.645,75,75,75h182V0C211.449,0,169.055,22.898,143.935,60.413z"/>
<g>
</g>
<g>
</g>
<g>
</g>
<g>
</g>
<g>
</g>
<g>
</g>
<g>
</g>
<g>
</g>
<g>
</g>
<g>
</g>
<g>
</g>
<g>
</g>
<g>
</g>
<g>
</g>
<g>
</g>
</svg>
