<?xml version="1.0" encoding="iso-8859-1"?>
<!-- Generator: Adobe Illustrator 19.0.0, SVG Export Plug-In . SVG Version: 6.00 Build 0)  -->
<svg version="1.1" id="Capa_1" xmlns="http://www.w3.org/2000/svg" xmlns:xlink="http://www.w3.org/1999/xlink" x="0px" y="0px"
	 viewBox="0 0 512 512" style="enable-background:new 0 0 512 512;" xml:space="preserve">
<polygon style="fill:#71D1FE;" points="430.01,421.732 455.99,406.732 438.981,377.27 473,377.27 473,347.27 438.981,347.27 
	455.99,317.808 430.01,302.808 413,332.27 395.99,302.808 370.01,317.808 387.019,347.27 353,347.27 353,377.27 387.019,377.27 
	370.01,406.732 395.99,421.732 413,392.27 "/>
<g>
	<rect x="86" y="452.27" style="fill:#BCF7FC;" width="30" height="30"/>
	<rect x="398" y="452.27" style="fill:#BCF7FC;" width="30" height="30"/>
	<rect x="242" y="332.27" style="fill:#BCF7FC;" width="30" height="30"/>
</g>
<polygon style="fill:#97E4FD;" points="118.01,421.731 143.99,406.731 126.981,377.27 161,377.27 161,347.27 126.981,347.27 
	143.99,317.809 118.01,302.809 101,332.27 83.99,302.809 58.01,317.809 75.019,347.27 41,347.27 41,377.27 75.019,377.27 
	58.01,406.731 83.99,421.731 101,392.27 "/>
<path style="fill:#093F61;" d="M490.834,145.062c-10.403-10.719-23.512-17.962-37.824-21.064
	C447.126,87.905,415.729,60.27,378,60.27c-2.654,0-5.303,0.138-7.935,0.413C344.945,23.168,302.551,0.27,257,0.27l-50,136l50,136
	h180c41.355,0,75-33.645,75-75C512,177.667,504.483,159.126,490.834,145.062z"/>
<path style="fill:#186C95;" d="M143.935,60.683c-2.632-0.274-5.28-0.413-7.935-0.413c-37.579,0-68.875,27.418-74.938,63.298
	C26.342,130.119,0,160.675,0,197.27c0,41.355,33.645,75,75,75h182v-272C211.449,0.27,169.055,23.168,143.935,60.683z"/>
<polygon style="fill:#71D1FE;" points="317,437.27 317,467.27 282.98,467.27 299.99,496.73 274.01,511.73 257,482.27 237,452.27 
	257,422.27 274.01,392.81 299.99,407.81 282.98,437.27 "/>
<polygon style="fill:#97E4FD;" points="257,422.27 257,482.27 239.99,511.73 214.01,496.73 231.02,467.27 197,467.27 197,437.27 
	231.02,437.27 214.01,407.81 239.99,392.81 "/>
<g>
</g>
<g>
</g>
<g>
</g>
<g>
</g>
<g>
</g>
<g>
</g>
<g>
</g>
<g>
</g>
<g>
</g>
<g>
</g>
<g>
</g>
<g>
</g>
<g>
</g>
<g>
</g>
<g>
</g>
</svg>
